<svg version="1.1" id="Layer_1" xmlns="http://www.w3.org/2000/svg" xmlns:xlink="http://www.w3.org/1999/xlink" x="0px" y="0px"
	 width="100%" viewBox="0 0 500 500" enable-background="new 0 0 500 500" xml:space="preserve">
<path fill="#7C9E8A" opacity="1.000000" stroke="none" 
	d="
M331.000000,501.000000 
	C220.666687,501.000000 110.833389,501.000000 1.000059,501.000000 
	C1.000039,334.333405 1.000039,167.666794 1.000020,1.000148 
	C167.666565,1.000099 334.333130,1.000099 500.999756,1.000049 
	C500.999847,167.666519 500.999847,334.333038 500.999939,500.999786 
	C444.500000,501.000000 388.000000,501.000000 331.000000,501.000000 
M331.399109,306.097687 
	C319.688568,289.030640 305.474701,274.454224 288.431702,262.644684 
	C265.121307,246.492310 237.977448,246.047409 214.561447,261.892517 
	C188.839203,279.298187 169.552841,302.248840 156.816177,330.590363 
	C151.823303,341.700562 149.569748,353.349915 151.044464,365.599426 
	C153.503952,386.028564 175.942993,407.501190 202.329208,400.979675 
	C217.687332,397.183868 233.024445,393.224823 248.973038,393.043732 
	C263.899658,392.874176 278.444916,395.612030 292.807678,399.432892 
	C301.233032,401.674286 309.775879,403.460510 318.390106,401.152435 
	C341.901062,394.853058 355.374542,372.398956 350.544586,348.256256 
	C347.480957,332.942535 340.385773,319.492615 331.399109,306.097687 
M237.147430,158.395355 
	C232.626892,145.818420 225.004211,135.575668 214.178131,127.705589 
	C192.722961,112.108620 166.303925,119.040085 155.450943,143.141098 
	C143.618561,169.417068 155.940964,208.131912 180.806442,222.803619 
	C202.950760,235.869766 225.947174,228.733780 236.310898,205.396973 
	C243.065170,190.187851 242.306549,174.663086 237.147430,158.395355 
M346.060547,142.468857 
	C333.804871,119.286392 311.548370,112.829453 289.981537,126.199493 
	C265.667328,141.272736 254.070236,175.956146 264.423126,202.636963 
	C274.813568,229.414566 301.992340,237.330750 324.935577,220.262024 
	C347.824188,203.233932 357.171265,169.664780 346.060547,142.468857 
M105.850075,208.215515 
	C95.659935,213.527817 89.665077,222.056610 88.190331,233.255341 
	C87.358475,239.572174 87.089088,246.286011 88.287704,252.488342 
	C92.298012,273.240082 103.898407,288.281769 124.295937,295.245544 
	C141.159409,301.002838 156.564850,293.803436 163.754395,277.601257 
	C172.797897,257.221039 164.373306,228.486649 145.310577,214.800766 
	C133.502441,206.323257 120.951675,201.919846 105.850075,208.215515 
M406.031433,272.517426 
	C413.700409,260.139893 416.614258,246.863281 413.849213,232.422806 
	C409.865112,211.615555 390.423309,200.339569 370.446503,207.343369 
	C346.700867,215.668503 331.136292,242.174561 335.132233,267.482697 
	C338.747009,290.377045 358.990631,302.675415 380.094421,294.604828 
	C391.024200,290.425110 399.308289,282.870728 406.031433,272.517426 
z"/>
<path fill="#F5F5EA" opacity="1.000000" stroke="none" 
	d="
M331.612976,306.387817 
	C340.385773,319.492615 347.480957,332.942535 350.544586,348.256256 
	C355.374542,372.398956 341.901062,394.853058 318.390106,401.152435 
	C309.775879,403.460510 301.233032,401.674286 292.807678,399.432892 
	C278.444916,395.612030 263.899658,392.874176 248.973038,393.043732 
	C233.024445,393.224823 217.687332,397.183868 202.329208,400.979675 
	C175.942993,407.501190 153.503952,386.028564 151.044464,365.599426 
	C149.569748,353.349915 151.823303,341.700562 156.816177,330.590363 
	C169.552841,302.248840 188.839203,279.298187 214.561447,261.892517 
	C237.977448,246.047409 265.121307,246.492310 288.431702,262.644684 
	C305.474701,274.454224 319.688568,289.030640 331.612976,306.387817 
z"/>
<path fill="#F5F5EA" opacity="1.000000" stroke="none" 
	d="
M237.331696,158.743790 
	C242.306549,174.663086 243.065170,190.187851 236.310898,205.396973 
	C225.947174,228.733780 202.950760,235.869766 180.806442,222.803619 
	C155.940964,208.131912 143.618561,169.417068 155.450943,143.141098 
	C166.303925,119.040085 192.722961,112.108620 214.178131,127.705589 
	C225.004211,135.575668 232.626892,145.818420 237.331696,158.743790 
z"/>
<path fill="#F5F5EA" opacity="1.000000" stroke="none" 
	d="
M346.235046,142.804565 
	C357.171265,169.664780 347.824188,203.233932 324.935577,220.262024 
	C301.992340,237.330750 274.813568,229.414566 264.423126,202.636963 
	C254.070236,175.956146 265.667328,141.272736 289.981537,126.199493 
	C311.548370,112.829453 333.804871,119.286392 346.235046,142.804565 
M308.727478,159.819870 
	C305.576141,152.618713 300.510315,149.506165 294.066284,150.811707 
	C288.014984,152.037689 283.869385,157.637711 283.903290,164.947556 
	C283.914642,167.401489 283.968811,170.154465 285.030151,172.250931 
	C288.989899,180.072464 293.279846,187.734528 297.716858,195.297455 
	C298.306488,196.302444 300.897369,197.247055 301.813477,196.773285 
	C310.324646,192.371689 319.017883,188.168396 326.944885,182.845139 
	C332.226410,179.298370 333.716583,170.349823 331.476105,165.088364 
	C328.412964,157.894974 320.361877,155.809296 312.962952,160.113098 
	C311.896301,160.733551 310.288116,160.423035 308.727478,159.819870 
z"/>
<path fill="#F5F5EA" opacity="1.000000" stroke="none" 
	d="
M106.209419,208.087311 
	C120.951675,201.919846 133.502441,206.323257 145.310577,214.800766 
	C164.373306,228.486649 172.797897,257.221039 163.754395,277.601257 
	C156.564850,293.803436 141.159409,301.002838 124.295937,295.245544 
	C103.898407,288.281769 92.298012,273.240082 88.287704,252.488342 
	C87.089088,246.286011 87.358475,239.572174 88.190331,233.255341 
	C89.665077,222.056610 95.659935,213.527817 106.209419,208.087311 
z"/>
<path fill="#F5F5EA" opacity="1.000000" stroke="none" 
	d="
M405.867188,272.841400 
	C399.308289,282.870728 391.024200,290.425110 380.094421,294.604828 
	C358.990631,302.675415 338.747009,290.377045 335.132233,267.482697 
	C331.136292,242.174561 346.700867,215.668503 370.446503,207.343369 
	C390.423309,200.339569 409.865112,211.615555 413.849213,232.422806 
	C416.614258,246.863281 413.700409,260.139893 405.867188,272.841400 
z"/>
<path fill="#626D66" opacity="1.000000" stroke="none" 
	d="
M308.829010,160.181610 
	C310.288116,160.423035 311.896301,160.733551 312.962952,160.113098 
	C320.361877,155.809296 328.412964,157.894974 331.476105,165.088364 
	C333.716583,170.349823 332.226410,179.298370 326.944885,182.845139 
	C319.017883,188.168396 310.324646,192.371689 301.813477,196.773285 
	C300.897369,197.247055 298.306488,196.302444 297.716858,195.297455 
	C293.279846,187.734528 288.989899,180.072464 285.030151,172.250931 
	C283.968811,170.154465 283.914642,167.401489 283.903290,164.947556 
	C283.869385,157.637711 288.014984,152.037689 294.066284,150.811707 
	C300.510315,149.506165 305.576141,152.618713 308.829010,160.181610 
z"/>
</svg>